<svg width="31" height="31" viewBox="0 0 31 31" fill="none" xmlns="http://www.w3.org/2000/svg">
<path d="M31 10.8494V20.2342C31 21.067 30.4682 21.8163 29.6771 22.0986C28.5233 22.5099 27.6062 23.4499 27.224 24.6135C26.9563 25.4293 26.2046 25.9775 25.3542 25.9775H5.64575C4.79477 25.9775 4.04308 25.4294 3.77534 24.6135C3.39317 23.4499 2.47673 22.5098 1.32283 22.0986C0.531178 21.8163 0 21.067 0 20.2342V10.847C0 10.0142 0.530572 9.26489 1.31986 8.98323C2.48829 8.56648 3.40952 7.6119 3.78448 6.43021C4.05101 5.5883 4.82752 5.02255 5.71605 5.02255H25.27C26.161 5.02255 26.9406 5.58951 27.2089 6.43384C27.585 7.61559 28.5075 8.56957 29.6772 8.98504C30.4682 9.2661 31 10.0154 31 10.8494Z" fill="black"/>
<path d="M31 10.8494V20.2342C31 21.0671 30.4682 21.8163 29.6771 22.0986C28.5233 22.5099 27.6063 23.4499 27.224 24.6135C26.9563 25.4293 26.2046 25.9775 25.3542 25.9775H15.5333V5.02249H25.2701C26.1611 5.02249 26.9406 5.58945 27.2089 6.43378C27.5851 7.61553 28.5076 8.56951 29.6772 8.98498C30.4682 9.2661 31 10.0154 31 10.8494Z" fill="black"/>
<path d="M24.3766 5.02249H6.69V25.9775H24.3766V5.02249Z" fill="#FFF2D4"/>
<path d="M24.3766 5.02249H15.5333V25.9775H24.3766V5.02249Z" fill="#F9D8B4"/>
<path d="M19.614 13.698L18.4529 14.8294L18.7273 16.4273C18.806 16.8852 18.6206 17.3395 18.2451 17.6127C17.869 17.8859 17.3796 17.9216 16.9683 17.7054L15.5334 16.9506L14.0985 17.7054C13.9198 17.7993 13.726 17.8459 13.5334 17.8459C13.2832 17.8459 13.0343 17.7672 12.8223 17.6127C12.4461 17.3395 12.2613 16.8852 12.3395 16.4273L12.6139 14.8294L11.4528 13.698C11.1203 13.374 11.0028 12.8973 11.1463 12.4551C11.2899 12.0135 11.6648 11.6974 12.1251 11.6302L13.729 11.3969L14.4462 9.94386C14.5492 9.73552 14.7048 9.56653 14.8926 9.44961C15.081 9.3327 15.3015 9.26791 15.5334 9.26791C15.9986 9.26791 16.4147 9.52717 16.6207 9.94386L17.3378 11.3969L18.9417 11.6302C19.4021 11.6974 19.777 12.0135 19.9205 12.4557C20.064 12.8973 19.9465 13.374 19.614 13.698Z" fill="#FFD561"/>
<path d="M19.9804 20.9804C19.9804 21.4819 19.5733 21.889 19.0718 21.889H11.9947C11.4932 21.889 11.0862 21.4819 11.0862 20.9804C11.0862 20.4789 11.4932 20.0718 11.9947 20.0718H19.0718C19.5733 20.0718 19.9804 20.4789 19.9804 20.9804Z" fill="#FFD561"/>
<path d="M19.9804 20.9804C19.9804 21.4819 19.5734 21.889 19.0719 21.889H15.5333V20.0718H19.0719C19.5734 20.0718 19.9804 20.4789 19.9804 20.9804Z" fill="#FFB64C"/>
<path d="M16.9682 17.7054L15.5333 16.9506V9.26791C15.9985 9.26791 16.4146 9.52717 16.6206 9.94386L17.3377 11.3969L18.9416 11.6302C19.402 11.6974 19.7769 12.0135 19.9204 12.4557C20.064 12.8973 19.9465 13.374 19.6139 13.698L18.4528 14.8294L18.7272 16.4273C18.806 16.8852 18.6206 17.3395 18.2451 17.6127C17.8689 17.8859 17.3795 17.9216 16.9682 17.7054Z" fill="#FFB64C"/>
</svg>
