<svg width="21" height="21" viewBox="0 0 21 21" fill="none" xmlns="http://www.w3.org/2000/svg">
<g clip-path="url(#clip0_1603_503)">
<path d="M9.26947 19.7285C10.2888 19.7285 11.1152 18.9022 11.1152 17.8828C11.1152 16.8634 10.2888 16.0371 9.26947 16.0371C8.25012 16.0371 7.42377 16.8634 7.42377 17.8828C7.42377 18.9022 8.25012 19.7285 9.26947 19.7285Z" fill="black"/>
<path d="M15.4628 19.7285C16.4822 19.7285 17.3085 18.9022 17.3085 17.8828C17.3085 16.8634 16.4822 16.0371 15.4628 16.0371C14.4435 16.0371 13.6171 16.8634 13.6171 17.8828C13.6171 18.9022 14.4435 19.7285 15.4628 19.7285Z" fill="black"/>
<path d="M0.615231 2.50203H3.18087L6.15112 12.9L5.91815 13.3659C5.30473 14.5914 6.19521 16.0371 7.56918 16.0371H17.9237C18.2638 16.0371 18.539 15.7619 18.539 15.4219C18.539 15.0818 18.2638 14.8066 17.9237 14.8066H7.56918C7.11231 14.8066 6.81372 14.3256 7.01884 13.9162L7.18889 13.5762H17.9237C18.1983 13.5762 18.4398 13.3942 18.5155 13.1298L20.9765 4.51654C21.0293 4.3309 20.9921 4.13141 20.8761 3.97702C20.7596 3.82322 20.5775 3.73249 20.3847 3.73249H4.81205L4.23648 1.71794C4.16076 1.45359 3.91927 1.27153 3.64467 1.27153H0.615231C0.275172 1.27153 0 1.5467 0 1.88676C0 2.22682 0.275172 2.50203 0.615231 2.50203Z" fill="black"/>
</g>
<defs>
<clipPath id="clip0_1603_503">
<rect width="21" height="21" fill="white"/>
</clipPath>
</defs>
</svg>
