<svg width="18" height="18" viewBox="0 0 18 18" fill="none" xmlns="http://www.w3.org/2000/svg">
<g clip-path="url(#clip0_1603_498)">
<path d="M17.0123 7.0455L15.6022 6.86625C15.486 6.5085 15.3427 6.1635 15.1755 5.83575L16.0462 4.7145C16.3988 4.26075 16.3575 3.62025 15.9548 3.23025L14.7735 2.049C14.3798 1.6425 13.7392 1.602 13.2847 1.95375L12.165 2.8245C11.8372 2.65725 11.4923 2.514 11.1337 2.39775L10.9545 0.99C10.887 0.42525 10.4078 0 9.84 0H8.16C7.59225 0 7.113 0.42525 7.0455 0.98775L6.86625 2.39775C6.50775 2.514 6.16275 2.6565 5.835 2.8245L4.7145 1.95375C4.2615 1.602 3.621 1.6425 3.23025 2.04525L2.049 3.22575C1.6425 3.62025 1.60125 4.26075 1.95375 4.71525L2.8245 5.83575C2.6565 6.1635 2.514 6.5085 2.39775 6.86625L0.99 7.0455C0.42525 7.113 0 7.59225 0 8.16V9.84C0 10.4078 0.42525 10.887 0.98775 10.9545L2.39775 11.1337C2.514 11.4915 2.65725 11.8365 2.8245 12.1642L1.95375 13.2855C1.60125 13.7393 1.6425 14.3798 2.04525 14.7698L3.2265 15.951C3.621 16.3568 4.26075 16.3972 4.71525 16.0455L5.83575 15.1747C6.1635 15.3427 6.5085 15.486 6.86625 15.6015L7.0455 17.0085C7.113 17.5747 7.59225 18 8.16 18H9.84C10.4078 18 10.887 17.5748 10.9545 17.0123L11.1337 15.6022C11.4915 15.486 11.8365 15.3427 12.1642 15.1755L13.2855 16.0462C13.7393 16.3988 14.3798 16.3575 14.7698 15.9548L15.951 14.7735C16.3575 14.379 16.3988 13.7392 16.0462 13.2847L15.1755 12.1642C15.3435 11.8365 15.4867 11.4915 15.6022 11.1337L17.0093 10.9545C17.574 10.887 17.9993 10.4078 17.9993 9.84V8.16C18 7.59225 17.5748 7.113 17.0123 7.0455ZM9 12.75C6.93225 12.75 5.25 11.0677 5.25 9C5.25 6.93225 6.93225 5.25 9 5.25C11.0677 5.25 12.75 6.93225 12.75 9C12.75 11.0677 11.0677 12.75 9 12.75Z" fill="black"/>
</g>
<defs>
<clipPath id="clip0_1603_498">
<rect width="18" height="18" fill="white"/>
</clipPath>
</defs>
</svg>
