<svg width="27" height="27" viewBox="0 0 27 27" fill="none" xmlns="http://www.w3.org/2000/svg">
<g clip-path="url(#clip0_1603_1014)">
<path d="M16.5225 12.7422C16.1714 14.0831 14.9496 15.0756 13.5 15.0756C12.0504 15.0756 10.8286 14.0832 10.4775 12.7422H5.35239V22.9833H21.6476V12.7422H16.5225Z" fill="black"/>
<path d="M13.5 10.4089C12.6494 10.4089 11.9574 11.1009 11.9574 11.9515C11.9574 12.802 12.6494 13.494 13.5 13.494C14.3506 13.494 15.0426 12.802 15.0426 11.9515C15.0426 11.1009 14.3506 10.4089 13.5 10.4089Z" fill="black"/>
<path d="M23.2292 4.08545V11.1607H27V8.57837C27 6.33267 25.3688 4.46102 23.2292 4.08545Z" fill="black"/>
<path d="M0 8.5783V11.1607H3.77082V4.08539C1.63118 4.46096 0 6.33261 0 8.5783Z" fill="black"/>
<path d="M5.35239 4.01666V11.1607H10.4775C10.8286 9.81971 12.0504 8.8273 13.5 8.8273C14.9496 8.8273 16.1714 9.81966 16.5225 11.1607H21.6476V4.01666H5.35239Z" fill="black"/>
<path d="M23.2292 12.7422V22.9834H25.8558C26.4867 22.9834 27 22.4701 27 21.8391V12.7422H23.2292Z" fill="black"/>
<path d="M0 12.7422V21.8391C0 22.4701 0.513264 22.9834 1.14418 22.9834H3.77082V12.7422H0Z" fill="black"/>
</g>
<defs>
<clipPath id="clip0_1603_1014">
<rect width="27" height="27" fill="white"/>
</clipPath>
</defs>
</svg>
